<?xml version="1.0" encoding="UTF-8" standalone="no"?>
<!-- Created with Inkscape (http://www.inkscape.org/) -->

<svg
   xmlns:dc="http://purl.org/dc/elements/1.1/"
   xmlns:cc="http://creativecommons.org/ns#"
   xmlns:rdf="http://www.w3.org/1999/02/22-rdf-syntax-ns#"
   xmlns:svg="http://www.w3.org/2000/svg"
   xmlns="http://www.w3.org/2000/svg"
   xmlns:sodipodi="http://sodipodi.sourceforge.net/DTD/sodipodi-0.dtd"
   xmlns:inkscape="http://www.inkscape.org/namespaces/inkscape"
   sodipodi:docname="opie.svg"
   inkscape:version="0.48.3.1 r9886"
   version="1.1"
   id="svg2"
   height="480"
   width="640">
  <defs
     id="defs4" />
  <sodipodi:namedview
     id="base"
     pagecolor="#ffffff"
     bordercolor="#666666"
     borderopacity="1.0"
     inkscape:pageopacity="0.0"
     inkscape:pageshadow="2"
     inkscape:zoom="2"
     inkscape:cx="260.77836"
     inkscape:cy="279.83416"
     inkscape:document-units="px"
     inkscape:current-layer="layer1"
     showgrid="false"
     inkscape:window-width="1239"
     inkscape:window-height="867"
     inkscape:window-x="33"
     inkscape:window-y="86"
     inkscape:window-maximized="0" />
  <metadata
     id="metadata7">
    <rdf:RDF>
      <cc:Work
         rdf:about="">
        <dc:format>image/svg+xml</dc:format>
        <dc:type
           rdf:resource="http://purl.org/dc/dcmitype/StillImage" />
        <dc:title />
      </cc:Work>
    </rdf:RDF>
  </metadata>
  <g
     inkscape:label="Layer 1"
     inkscape:groupmode="layer"
     id="layer1"
     transform="translate(0,-572.36218)">
    <path
       sodipodi:type="arc"
       style="fill:#000000"
       id="path2987"
       sodipodi:cx="91"
       sodipodi:cy="101"
       sodipodi:rx="55"
       sodipodi:ry="17"
       d="m 146,101 c 0,9.38884 -24.62434,17 -55,17 -30.375661,0 -55,-7.61116 -55,-17 0,-9.388841 24.624339,-17 55,-17 30.37566,0 55,7.611159 55,17 z"
       transform="translate(0,572.36218)" />
    <rect
       style="fill:#000000"
       id="rect2989"
       width="8"
       height="48"
       x="43.5"
       y="679.86218" />
    <rect
       style="fill:#000000"
       id="rect2989-9"
       width="8"
       height="48"
       x="116"
       y="680.36218" />
    <rect
       style="fill:#000000"
       id="rect2989-91"
       width="8"
       height="48"
       x="126"
       y="680.86218" />
    <rect
       style="fill:#000000"
       id="rect2989-91-2"
       width="8"
       height="48"
       x="56"
       y="680.36218" />
    <rect
       style="fill:#000000"
       id="rect3055"
       width="12"
       height="38"
       x="134"
       y="60"
       transform="translate(0,572.36218)" />
    <path
       sodipodi:type="arc"
       style="fill:#000000"
       id="path3057"
       sodipodi:cx="183"
       sodipodi:cy="52"
       sodipodi:rx="27"
       sodipodi:ry="8"
       d="m 210,52 c 0,4.418278 -12.08831,8 -27,8 -14.91169,0 -27,-3.581722 -27,-8 0,-4.418278 12.08831,-8 27,-8 14.91169,0 27,3.581722 27,8 z"
       transform="translate(-23.5,577.86218)" />
    <path
       sodipodi:type="arc"
       style="fill:#000000"
       id="path3061"
       sodipodi:cx="142.75"
       sodipodi:cy="43.75"
       sodipodi:rx="3.25"
       sodipodi:ry="5.75"
       d="m 146,43.75 c 0,3.175637 -1.45507,5.75 -3.25,5.75 -1.79493,0 -3.25,-2.574363 -3.25,-5.75 0,-3.175637 1.45507,-5.75 3.25,-5.75 1.79493,0 3.25,2.574363 3.25,5.75 z"
       transform="translate(-2.5,578.36218)" />
    <path
       sodipodi:type="arc"
       style="fill:#ffffff"
       id="path3063"
       sodipodi:cx="155.25"
       sodipodi:cy="51.25"
       sodipodi:rx="3.75"
       sodipodi:ry="1.25"
       d="m 159,51.25 c 0,0.690356 -1.67893,1.25 -3.75,1.25 -2.07107,0 -3.75,-0.559644 -3.75,-1.25 0,-0.690356 1.67893,-1.25 3.75,-1.25 2.07107,0 3.75,0.559644 3.75,1.25 z"
       transform="translate(-1,573.36218)" />
    <path
       transform="translate(211.25,563.11218)"
       sodipodi:type="arc"
       style="fill:#000000"
       id="path2987-6"
       sodipodi:cx="91"
       sodipodi:cy="101"
       sodipodi:rx="55"
       sodipodi:ry="17"
       d="m 146,101 c 0,9.38884 -24.62434,17 -55,17 -30.375661,0 -55,-7.61116 -55,-17 0,-9.388841 24.624339,-17 55,-17 30.37566,0 55,7.611159 55,17 z" />
    <rect
       style="fill:#000000"
       id="rect2989-7"
       width="8"
       height="48"
       x="425.71216"
       y="579.97443"
       transform="matrix(0.96592583,0.25881905,-0.25881905,0.96592583,0,0)" />
    <rect
       style="fill:#000000"
       id="rect2989-9-5"
       width="8"
       height="48"
       x="495.87122"
       y="561.69305"
       transform="matrix(0.96592583,0.25881904,-0.25881904,0.96592583,0,0)" />
    <rect
       style="fill:#000000"
       id="rect2989-91-24"
       width="8"
       height="48"
       x="505.65985"
       y="559.58777"
       transform="matrix(0.96592583,0.25881904,-0.25881904,0.96592583,0,0)" />
    <rect
       style="fill:#000000"
       id="rect2989-91-2-7"
       width="8"
       height="48"
       x="437.91565"
       y="577.22217"
       transform="matrix(0.96592583,0.25881905,-0.25881905,0.96592583,0,0)" />
    <rect
       style="fill:#000000"
       id="rect3055-4"
       width="12"
       height="38"
       x="345.25"
       y="623.11218" />
    <path
       sodipodi:type="arc"
       style="fill:#000000"
       id="path3057-6"
       sodipodi:cx="183"
       sodipodi:cy="52"
       sodipodi:rx="27"
       sodipodi:ry="8"
       d="m 210,52 c 0,4.418278 -12.08831,8 -27,8 -14.91169,0 -27,-3.581722 -27,-8 0,-4.418278 12.08831,-8 27,-8 14.91169,0 27,3.581722 27,8 z"
       transform="translate(187.75,568.61218)" />
    <path
       sodipodi:type="arc"
       style="fill:#000000"
       id="path3061-1"
       sodipodi:cx="142.75"
       sodipodi:cy="43.75"
       sodipodi:rx="3.25"
       sodipodi:ry="5.75"
       d="m 146,43.75 c 0,3.175637 -1.45507,5.75 -3.25,5.75 -1.79493,0 -3.25,-2.574363 -3.25,-5.75 0,-3.175637 1.45507,-5.75 3.25,-5.75 1.79493,0 3.25,2.574363 3.25,5.75 z"
       transform="translate(208.75,569.11218)" />
    <path
       sodipodi:type="arc"
       style="fill:#ffffff"
       id="path3063-0"
       sodipodi:cx="155.25"
       sodipodi:cy="51.25"
       sodipodi:rx="3.75"
       sodipodi:ry="1.25"
       d="m 159,51.25 c 0,0.690356 -1.67893,1.25 -3.75,1.25 -2.07107,0 -3.75,-0.559644 -3.75,-1.25 0,-0.690356 1.67893,-1.25 3.75,-1.25 2.07107,0 3.75,0.559644 3.75,1.25 z"
       transform="translate(210.25,564.11218)" />
    <path
       transform="translate(441.75,567.61218)"
       sodipodi:type="arc"
       style="fill:#000000"
       id="path2987-5"
       sodipodi:cx="91"
       sodipodi:cy="101"
       sodipodi:rx="55"
       sodipodi:ry="17"
       d="m 146,101 c 0,9.38884 -24.62434,17 -55,17 -30.375661,0 -55,-7.61116 -55,-17 0,-9.388841 24.624339,-17 55,-17 30.37566,0 55,7.611159 55,17 z" />
    <rect
       style="fill:#000000"
       id="rect2989-94"
       width="8"
       height="48"
       x="769.25903"
       y="336.82391"
       transform="matrix(0.8660254,0.5,-0.5,0.8660254,0,0)" />
    <rect
       style="fill:#000000"
       id="rect2989-9-9"
       width="8"
       height="48"
       x="132.68369"
       y="862.7569"
       transform="matrix(0.8660254,-0.5,0.5,0.8660254,0,0)" />
    <rect
       style="fill:#000000"
       id="rect2989-91-1"
       width="8"
       height="48"
       x="141.09393"
       y="868.18994"
       transform="matrix(0.8660254,-0.5,0.5,0.8660254,0,0)" />
    <rect
       style="fill:#000000"
       id="rect2989-91-2-0"
       width="8"
       height="48"
       x="780.33435"
       y="331.00693"
       transform="matrix(0.8660254,0.5,-0.5,0.8660254,0,0)" />
    <rect
       style="fill:#000000"
       id="rect3055-7"
       width="12"
       height="38"
       x="575.75"
       y="627.61218" />
    <path
       sodipodi:type="arc"
       style="fill:#000000"
       id="path3057-7"
       sodipodi:cx="183"
       sodipodi:cy="52"
       sodipodi:rx="27"
       sodipodi:ry="8"
       d="m 210,52 c 0,4.418278 -12.08831,8 -27,8 -14.91169,0 -27,-3.581722 -27,-8 0,-4.418278 12.08831,-8 27,-8 14.91169,0 27,3.581722 27,8 z"
       transform="translate(418.25,573.11218)" />
    <path
       sodipodi:type="arc"
       style="fill:#000000"
       id="path3061-4"
       sodipodi:cx="142.75"
       sodipodi:cy="43.75"
       sodipodi:rx="3.25"
       sodipodi:ry="5.75"
       d="m 146,43.75 c 0,3.175637 -1.45507,5.75 -3.25,5.75 -1.79493,0 -3.25,-2.574363 -3.25,-5.75 0,-3.175637 1.45507,-5.75 3.25,-5.75 1.79493,0 3.25,2.574363 3.25,5.75 z"
       transform="translate(439.25,573.61218)" />
    <path
       sodipodi:type="arc"
       style="fill:#ffffff"
       id="path3063-5"
       sodipodi:cx="155.25"
       sodipodi:cy="51.25"
       sodipodi:rx="3.75"
       sodipodi:ry="1.25"
       d="m 159,51.25 c 0,0.690356 -1.67893,1.25 -3.75,1.25 -2.07107,0 -3.75,-0.559644 -3.75,-1.25 0,-0.690356 1.67893,-1.25 3.75,-1.25 2.07107,0 3.75,0.559644 3.75,1.25 z"
       transform="translate(440.75,568.61218)" />
    <path
       transform="translate(6.25,704.11218)"
       sodipodi:type="arc"
       style="fill:#000000"
       id="path2987-4"
       sodipodi:cx="91"
       sodipodi:cy="101"
       sodipodi:rx="55"
       sodipodi:ry="17"
       d="m 146,101 c 0,9.38884 -24.62434,17 -55,17 -30.375661,0 -55,-7.61116 -55,-17 0,-9.388841 24.624339,-17 55,-17 30.37566,0 55,7.611159 55,17 z" />
    <rect
       style="fill:#000000"
       id="rect2989-98"
       width="8"
       height="48"
       x="734.71106"
       y="342.73929"
       transform="matrix(0.5,0.8660254,-0.8660254,0.5,0,0)" />
    <rect
       style="fill:#000000"
       id="rect2989-9-90"
       width="8"
       height="48"
       x="-482.61386"
       y="662.14966"
       inkscape:transform-center-x="-7.4999971"
       transform="matrix(0.70710678,-0.70710678,0.70710678,0.70710678,0,0)" />
    <rect
       style="fill:#000000"
       id="rect2989-91-7"
       width="8"
       height="48"
       x="-636.14874"
       y="522.14032"
       transform="matrix(0.5,-0.8660254,0.8660254,0.5,0,0)"
       inkscape:transform-center-y="2.4148248"
       inkscape:transform-center-x="-0.64704014" />
    <rect
       style="fill:#000000"
       id="rect2989-91-2-70"
       width="8"
       height="48"
       x="725.94788"
       y="346.91748"
       transform="matrix(0.5,0.8660254,-0.8660254,0.5,0,0)" />
    <rect
       style="fill:#000000"
       id="rect3055-8"
       width="12"
       height="38"
       x="140.25"
       y="764.11218" />
    <path
       sodipodi:type="arc"
       style="fill:#000000"
       id="path3057-4"
       sodipodi:cx="183"
       sodipodi:cy="52"
       sodipodi:rx="27"
       sodipodi:ry="8"
       d="m 210,52 c 0,4.418278 -12.08831,8 -27,8 -14.91169,0 -27,-3.581722 -27,-8 0,-4.418278 12.08831,-8 27,-8 14.91169,0 27,3.581722 27,8 z"
       transform="translate(-17.25,709.61218)" />
    <path
       sodipodi:type="arc"
       style="fill:#000000"
       id="path3061-16"
       sodipodi:cx="142.75"
       sodipodi:cy="43.75"
       sodipodi:rx="3.25"
       sodipodi:ry="5.75"
       d="m 146,43.75 c 0,3.175637 -1.45507,5.75 -3.25,5.75 -1.79493,0 -3.25,-2.574363 -3.25,-5.75 0,-3.175637 1.45507,-5.75 3.25,-5.75 1.79493,0 3.25,2.574363 3.25,5.75 z"
       transform="translate(3.75,710.11218)" />
    <path
       sodipodi:type="arc"
       style="fill:#ffffff"
       id="path3063-3"
       sodipodi:cx="155.25"
       sodipodi:cy="51.25"
       sodipodi:rx="3.75"
       sodipodi:ry="1.25"
       d="m 159,51.25 c 0,0.690356 -1.67893,1.25 -3.75,1.25 -2.07107,0 -3.75,-0.559644 -3.75,-1.25 0,-0.690356 1.67893,-1.25 3.75,-1.25 2.07107,0 3.75,0.559644 3.75,1.25 z"
       transform="translate(5.25,705.11218)" />
    <path
       transform="translate(221.75,673.11218)"
       sodipodi:type="arc"
       style="fill:#000000"
       id="path2987-68"
       sodipodi:cx="91"
       sodipodi:cy="101"
       sodipodi:rx="55"
       sodipodi:ry="17"
       d="m 146,101 c 0,9.38884 -24.62434,17 -55,17 -30.375661,0 -55,-7.61116 -55,-17 0,-9.388841 24.624339,-17 55,-17 30.37566,0 55,7.611159 55,17 z" />
    <rect
       style="fill:#000000"
       id="rect2989-93"
       width="8"
       height="48"
       x="751.09259"
       y="355.97241"
       transform="matrix(0.70710678,0.70710678,-0.70710678,0.70710678,0,0)" />
    <rect
       style="fill:#000000"
       id="rect2989-9-3"
       width="8"
       height="48"
       x="117.72678"
       y="842.13007"
       transform="matrix(0.96592583,-0.25881905,0.25881905,0.96592583,0,0)" />
    <rect
       style="fill:#000000"
       id="rect2989-91-6"
       width="8"
       height="48"
       x="127.25663"
       y="845.20123"
       transform="matrix(0.96592583,-0.25881905,0.25881905,0.96592583,0,0)" />
    <rect
       style="fill:#000000"
       id="rect2989-91-2-73"
       width="8"
       height="48"
       x="762.0528"
       y="345.71939"
       transform="matrix(0.70710678,0.70710678,-0.70710678,0.70710678,0,0)" />
    <rect
       style="fill:#000000"
       id="rect3055-3"
       width="12"
       height="38"
       x="355.75"
       y="733.11218" />
    <path
       sodipodi:type="arc"
       style="fill:#000000"
       id="path3057-69"
       sodipodi:cx="183"
       sodipodi:cy="52"
       sodipodi:rx="27"
       sodipodi:ry="8"
       d="m 210,52 c 0,4.418278 -12.08831,8 -27,8 -14.91169,0 -27,-3.581722 -27,-8 0,-4.418278 12.08831,-8 27,-8 14.91169,0 27,3.581722 27,8 z"
       transform="translate(198.25,678.61218)" />
    <path
       sodipodi:type="arc"
       style="fill:#000000"
       id="path3061-2"
       sodipodi:cx="142.75"
       sodipodi:cy="43.75"
       sodipodi:rx="3.25"
       sodipodi:ry="5.75"
       d="m 146,43.75 c 0,3.175637 -1.45507,5.75 -3.25,5.75 -1.79493,0 -3.25,-2.574363 -3.25,-5.75 0,-3.175637 1.45507,-5.75 3.25,-5.75 1.79493,0 3.25,2.574363 3.25,5.75 z"
       transform="translate(219.25,679.11218)" />
    <path
       sodipodi:type="arc"
       style="fill:#ffffff"
       id="path3063-7"
       sodipodi:cx="155.25"
       sodipodi:cy="51.25"
       sodipodi:rx="3.75"
       sodipodi:ry="1.25"
       d="m 159,51.25 c 0,0.690356 -1.67893,1.25 -3.75,1.25 -2.07107,0 -3.75,-0.559644 -3.75,-1.25 0,-0.690356 1.67893,-1.25 3.75,-1.25 2.07107,0 3.75,0.559644 3.75,1.25 z"
       transform="translate(220.75,674.11218)" />
    <path
       transform="translate(419.75,721.61218)"
       sodipodi:type="arc"
       style="fill:#000000"
       id="path2987-9"
       sodipodi:cx="91"
       sodipodi:cy="101"
       sodipodi:rx="55"
       sodipodi:ry="17"
       d="m 146,101 c 0,9.38884 -24.62434,17 -55,17 -30.375661,0 -55,-7.61116 -55,-17 0,-9.388841 24.624339,-17 55,-17 30.37566,0 55,7.611159 55,17 z"
       inkscape:transform-center-x="20"
       inkscape:transform-center-y="32.5" />
    <rect
       style="fill:#000000"
       id="rect2989-0"
       width="8"
       height="48"
       x="233.65149"
       y="915.63831"
       transform="matrix(0.96592583,-0.25881905,0.25881905,0.96592583,0,0)" />
    <rect
       style="fill:#000000"
       id="rect2989-9-7"
       width="8"
       height="48"
       x="296.81561"
       y="938.77472"
       transform="matrix(0.96592583,-0.25881905,0.25881905,0.96592583,0,0)" />
    <rect
       style="fill:#000000"
       id="rect2989-91-5"
       width="8"
       height="48"
       x="45.041374"
       y="990.55786"
       transform="matrix(0.8660254,-0.5,0.5,0.8660254,0,0)" />
    <rect
       style="fill:#000000"
       id="rect2989-91-2-736"
       width="8"
       height="48"
       x="-12.16534"
       y="954.64276"
       transform="matrix(0.8660254,-0.5,0.5,0.8660254,0,0)" />
    <rect
       style="fill:#000000"
       id="rect3055-5"
       width="12"
       height="38"
       x="553.75"
       y="781.61218" />
    <path
       sodipodi:type="arc"
       style="fill:#000000"
       id="path3057-2"
       sodipodi:cx="183"
       sodipodi:cy="52"
       sodipodi:rx="27"
       sodipodi:ry="8"
       d="m 210,52 c 0,4.418278 -12.08831,8 -27,8 -14.91169,0 -27,-3.581722 -27,-8 0,-4.418278 12.08831,-8 27,-8 14.91169,0 27,3.581722 27,8 z"
       transform="translate(396.25,727.11218)" />
    <path
       sodipodi:type="arc"
       style="fill:#000000"
       id="path3061-8"
       sodipodi:cx="142.75"
       sodipodi:cy="43.75"
       sodipodi:rx="3.25"
       sodipodi:ry="5.75"
       d="m 146,43.75 c 0,3.175637 -1.45507,5.75 -3.25,5.75 -1.79493,0 -3.25,-2.574363 -3.25,-5.75 0,-3.175637 1.45507,-5.75 3.25,-5.75 1.79493,0 3.25,2.574363 3.25,5.75 z"
       transform="translate(417.25,727.61218)" />
    <path
       sodipodi:type="arc"
       style="fill:#ffffff"
       id="path3063-51"
       sodipodi:cx="155.25"
       sodipodi:cy="51.25"
       sodipodi:rx="3.75"
       sodipodi:ry="1.25"
       d="m 159,51.25 c 0,0.690356 -1.67893,1.25 -3.75,1.25 -2.07107,0 -3.75,-0.559644 -3.75,-1.25 0,-0.690356 1.67893,-1.25 3.75,-1.25 2.07107,0 3.75,0.559644 3.75,1.25 z"
       transform="translate(418.75,722.61218)" />
    <path
       sodipodi:type="arc"
       style="fill:#ffffff"
       id="path3496"
       sodipodi:cx="141.5"
       sodipodi:cy="78.75"
       sodipodi:rx="2.5"
       sodipodi:ry="12.75"
       d="m 144,78.75 a 2.5,12.75 0 1 1 -5,0 2.5,12.75 0 1 1 5,0 z"
       transform="translate(0,572.36218)" />
    <path
       sodipodi:type="arc"
       style="fill:#ffffff"
       id="path3498"
       sodipodi:cx="84.25"
       sodipodi:cy="100.75"
       sodipodi:rx="29.75"
       sodipodi:ry="6.25"
       d="m 114,100.75 a 29.75,6.25 0 1 1 -59.5,0 29.75,6.25 0 1 1 59.5,0 z"
       transform="translate(0,572.36218)" />
    <path
       sodipodi:type="arc"
       style="fill:#ffffff"
       id="path3500"
       sodipodi:cx="298.5"
       sodipodi:cy="91"
       sodipodi:rx="32"
       sodipodi:ry="6.5"
       d="m 330.5,91 a 32,6.5 0 1 1 -64,0 32,6.5 0 1 1 64,0 z"
       transform="translate(0,572.36218)" />
    <path
       sodipodi:type="arc"
       style="fill:#ffffff"
       id="path3502"
       sodipodi:cx="351"
       sodipodi:cy="69.75"
       sodipodi:rx="2"
       sodipodi:ry="9.75"
       d="m 353,69.75 a 2,9.75 0 1 1 -4,0 2,9.75 0 1 1 4,0 z"
       transform="translate(0,572.36218)" />
    <path
       sodipodi:type="arc"
       style="fill:#ffffff"
       id="path3506"
       sodipodi:cx="100"
       sodipodi:cy="235"
       sodipodi:rx="33.5"
       sodipodi:ry="6.5"
       d="m 133.5,235 a 33.5,6.5 0 1 1 -67,0 33.5,6.5 0 1 1 67,0 z"
       transform="translate(0,572.36218)" />
    <path
       sodipodi:type="arc"
       style="fill:#ffffff"
       id="path3508"
       sodipodi:cx="308.75"
       sodipodi:cy="198.25"
       sodipodi:rx="32.75"
       sodipodi:ry="5.25"
       d="m 341.5,198.25 a 32.75,5.25 0 1 1 -65.5,0 32.75,5.25 0 1 1 65.5,0 z"
       transform="translate(0,572.36218)" />
    <path
       sodipodi:type="arc"
       style="fill:#ffffff"
       id="path3510"
       sodipodi:cx="506.25"
       sodipodi:cy="256"
       sodipodi:rx="32.25"
       sodipodi:ry="6"
       d="m 538.5,256 a 32.25,6 0 1 1 -64.5,0 32.25,6 0 1 1 64.5,0 z"
       transform="translate(0,572.36218)" />
    <path
       sodipodi:type="arc"
       style="fill:#ffffff"
       id="path3512"
       sodipodi:cx="530"
       sodipodi:cy="100.25"
       sodipodi:rx="34"
       sodipodi:ry="5.25"
       d="m 564,100.25 a 34,5.25 0 1 1 -68,0 34,5.25 0 1 1 68,0 z"
       transform="translate(0,572.36218)" />
    <path
       sodipodi:type="arc"
       style="fill:#ffffff"
       id="path3514"
       sodipodi:cx="363"
       sodipodi:cy="179"
       sodipodi:rx="2.5"
       sodipodi:ry="11"
       d="m 365.5,179 a 2.5,11 0 1 1 -5,0 2.5,11 0 1 1 5,0 z"
       transform="translate(0,572.36218)" />
    <path
       sodipodi:type="arc"
       style="fill:#ffffff"
       id="path3516"
       sodipodi:cx="561.75"
       sodipodi:cy="227.75"
       sodipodi:rx="2.75"
       sodipodi:ry="11.25"
       d="m 564.5,227.75 a 2.75,11.25 0 1 1 -5.5,0 2.75,11.25 0 1 1 5.5,0 z"
       transform="translate(0,572.36218)" />
    <path
       sodipodi:type="arc"
       style="fill:#ffffff"
       id="path3518"
       sodipodi:cx="583"
       sodipodi:cy="73.75"
       sodipodi:rx="3"
       sodipodi:ry="12.25"
       d="m 586,73.75 a 3,12.25 0 1 1 -6,0 3,12.25 0 1 1 6,0 z"
       transform="translate(0,572.36218)" />
  </g>
</svg>
