<?xml version="1.0" encoding="UTF-8" standalone="no"?>
<!-- Created with Inkscape (http://www.inkscape.org/) -->

<svg
   xmlns:dc="http://purl.org/dc/elements/1.1/"
   xmlns:cc="http://creativecommons.org/ns#"
   xmlns:rdf="http://www.w3.org/1999/02/22-rdf-syntax-ns#"
   xmlns:svg="http://www.w3.org/2000/svg"
   xmlns="http://www.w3.org/2000/svg"
   xmlns:sodipodi="http://sodipodi.sourceforge.net/DTD/sodipodi-0.dtd"
   xmlns:inkscape="http://www.inkscape.org/namespaces/inkscape"
   sodipodi:docname="wilbur.svg"
   inkscape:version="0.48.3.1 r9886"
   version="1.1"
   id="svg2"
   height="480"
   width="640">
  <defs
     id="defs4" />
  <sodipodi:namedview
     id="base"
     pagecolor="#ffffff"
     bordercolor="#666666"
     borderopacity="1.0"
     inkscape:pageopacity="0.0"
     inkscape:pageshadow="2"
     inkscape:zoom="2"
     inkscape:cx="304.01956"
     inkscape:cy="239.83416"
     inkscape:document-units="px"
     inkscape:current-layer="layer1"
     showgrid="false"
     inkscape:window-width="1239"
     inkscape:window-height="867"
     inkscape:window-x="33"
     inkscape:window-y="50"
     inkscape:window-maximized="0" />
  <metadata
     id="metadata7">
    <rdf:RDF>
      <cc:Work
         rdf:about="">
        <dc:format>image/svg+xml</dc:format>
        <dc:type
           rdf:resource="http://purl.org/dc/dcmitype/StillImage" />
      </cc:Work>
    </rdf:RDF>
  </metadata>
  <g
     inkscape:label="Layer 1"
     inkscape:groupmode="layer"
     id="layer1"
     transform="translate(0,-572.36218)">
    <path
       sodipodi:type="arc"
       style="fill:#000000"
       id="path2987"
       sodipodi:cx="91"
       sodipodi:cy="101"
       sodipodi:rx="55"
       sodipodi:ry="17"
       d="m 146,101 a 55,17 0 1 1 -110,0 55,17 0 1 1 110,0 z"
       transform="translate(0,572.36218)" />
    <rect
       style="fill:#000000"
       id="rect2989"
       width="8"
       height="48"
       x="43.5"
       y="679.86218" />
    <rect
       style="fill:#000000"
       id="rect2989-9"
       width="8"
       height="48"
       x="116"
       y="680.36218" />
    <rect
       style="fill:#000000"
       id="rect2989-91"
       width="8"
       height="48"
       x="126"
       y="680.86218" />
    <rect
       style="fill:#000000"
       id="rect2989-91-2"
       width="8"
       height="48"
       x="56"
       y="680.36218" />
    <rect
       style="fill:#000000"
       id="rect3055"
       width="12"
       height="38"
       x="134"
       y="60"
       transform="translate(0,572.36218)" />
    <path
       sodipodi:type="arc"
       style="fill:#000000"
       id="path3057"
       sodipodi:cx="183"
       sodipodi:cy="52"
       sodipodi:rx="27"
       sodipodi:ry="8"
       d="m 210,52 a 27,8 0 1 1 -54,0 27,8 0 1 1 54,0 z"
       transform="translate(-23.5,577.86218)" />
    <path
       sodipodi:type="arc"
       style="fill:#000000"
       id="path3061"
       sodipodi:cx="142.75"
       sodipodi:cy="43.75"
       sodipodi:rx="3.25"
       sodipodi:ry="5.75"
       d="m 146,43.75 a 3.25,5.75 0 1 1 -6.5,0 3.25,5.75 0 1 1 6.5,0 z"
       transform="translate(-2.5,578.36218)" />
    <path
       sodipodi:type="arc"
       style="fill:#ffffff"
       id="path3063"
       sodipodi:cx="155.25"
       sodipodi:cy="51.25"
       sodipodi:rx="3.75"
       sodipodi:ry="1.25"
       d="m 159,51.25 a 3.75,1.25 0 1 1 -7.5,0 3.75,1.25 0 1 1 7.5,0 z"
       transform="translate(-1,573.36218)" />
    <path
       transform="translate(211.25,563.11218)"
       sodipodi:type="arc"
       style="fill:#000000"
       id="path2987-6"
       sodipodi:cx="91"
       sodipodi:cy="101"
       sodipodi:rx="55"
       sodipodi:ry="17"
       d="m 146,101 a 55,17 0 1 1 -110,0 55,17 0 1 1 110,0 z" />
    <rect
       style="fill:#000000"
       id="rect2989-7"
       width="8"
       height="48"
       x="425.71216"
       y="579.97443"
       transform="matrix(0.96592583,0.25881905,-0.25881905,0.96592583,0,0)" />
    <rect
       style="fill:#000000"
       id="rect2989-9-5"
       width="8"
       height="48"
       x="495.87122"
       y="561.69305"
       transform="matrix(0.96592583,0.25881904,-0.25881904,0.96592583,0,0)" />
    <rect
       style="fill:#000000"
       id="rect2989-91-24"
       width="8"
       height="48"
       x="505.65985"
       y="559.58777"
       transform="matrix(0.96592583,0.25881904,-0.25881904,0.96592583,0,0)" />
    <rect
       style="fill:#000000"
       id="rect2989-91-2-7"
       width="8"
       height="48"
       x="437.91565"
       y="577.22217"
       transform="matrix(0.96592583,0.25881905,-0.25881905,0.96592583,0,0)" />
    <rect
       style="fill:#000000"
       id="rect3055-4"
       width="12"
       height="38"
       x="345.25"
       y="623.11218" />
    <path
       sodipodi:type="arc"
       style="fill:#000000"
       id="path3057-6"
       sodipodi:cx="183"
       sodipodi:cy="52"
       sodipodi:rx="27"
       sodipodi:ry="8"
       d="m 210,52 a 27,8 0 1 1 -54,0 27,8 0 1 1 54,0 z"
       transform="translate(187.75,568.61218)" />
    <path
       sodipodi:type="arc"
       style="fill:#000000"
       id="path3061-1"
       sodipodi:cx="142.75"
       sodipodi:cy="43.75"
       sodipodi:rx="3.25"
       sodipodi:ry="5.75"
       d="m 146,43.75 a 3.25,5.75 0 1 1 -6.5,0 3.25,5.75 0 1 1 6.5,0 z"
       transform="translate(208.75,569.11218)" />
    <path
       sodipodi:type="arc"
       style="fill:#ffffff"
       id="path3063-0"
       sodipodi:cx="155.25"
       sodipodi:cy="51.25"
       sodipodi:rx="3.75"
       sodipodi:ry="1.25"
       d="m 159,51.25 a 3.75,1.25 0 1 1 -7.5,0 3.75,1.25 0 1 1 7.5,0 z"
       transform="translate(210.25,564.11218)" />
    <path
       transform="translate(441.75,567.61218)"
       sodipodi:type="arc"
       style="fill:#000000"
       id="path2987-5"
       sodipodi:cx="91"
       sodipodi:cy="101"
       sodipodi:rx="55"
       sodipodi:ry="17"
       d="m 146,101 a 55,17 0 1 1 -110,0 55,17 0 1 1 110,0 z" />
    <rect
       style="fill:#000000"
       id="rect2989-94"
       width="8"
       height="48"
       x="769.25903"
       y="336.82391"
       transform="matrix(0.8660254,0.5,-0.5,0.8660254,0,0)" />
    <rect
       style="fill:#000000"
       id="rect2989-9-9"
       width="8"
       height="48"
       x="132.68369"
       y="862.7569"
       transform="matrix(0.8660254,-0.5,0.5,0.8660254,0,0)" />
    <rect
       style="fill:#000000"
       id="rect2989-91-1"
       width="8"
       height="48"
       x="141.09393"
       y="868.18994"
       transform="matrix(0.8660254,-0.5,0.5,0.8660254,0,0)" />
    <rect
       style="fill:#000000"
       id="rect2989-91-2-0"
       width="8"
       height="48"
       x="780.33435"
       y="331.00693"
       transform="matrix(0.8660254,0.5,-0.5,0.8660254,0,0)" />
    <rect
       style="fill:#000000"
       id="rect3055-7"
       width="12"
       height="38"
       x="575.75"
       y="627.61218" />
    <path
       sodipodi:type="arc"
       style="fill:#000000"
       id="path3057-7"
       sodipodi:cx="183"
       sodipodi:cy="52"
       sodipodi:rx="27"
       sodipodi:ry="8"
       d="m 210,52 a 27,8 0 1 1 -54,0 27,8 0 1 1 54,0 z"
       transform="translate(418.25,573.11218)" />
    <path
       sodipodi:type="arc"
       style="fill:#000000"
       id="path3061-4"
       sodipodi:cx="142.75"
       sodipodi:cy="43.75"
       sodipodi:rx="3.25"
       sodipodi:ry="5.75"
       d="m 146,43.75 a 3.25,5.75 0 1 1 -6.5,0 3.25,5.75 0 1 1 6.5,0 z"
       transform="translate(439.25,573.61218)" />
    <path
       sodipodi:type="arc"
       style="fill:#ffffff"
       id="path3063-5"
       sodipodi:cx="155.25"
       sodipodi:cy="51.25"
       sodipodi:rx="3.75"
       sodipodi:ry="1.25"
       d="m 159,51.25 a 3.75,1.25 0 1 1 -7.5,0 3.75,1.25 0 1 1 7.5,0 z"
       transform="translate(440.75,568.61218)" />
    <path
       transform="translate(6.25,704.11218)"
       sodipodi:type="arc"
       style="fill:#000000"
       id="path2987-4"
       sodipodi:cx="91"
       sodipodi:cy="101"
       sodipodi:rx="55"
       sodipodi:ry="17"
       d="m 146,101 a 55,17 0 1 1 -110,0 55,17 0 1 1 110,0 z" />
    <rect
       style="fill:#000000"
       id="rect2989-98"
       width="8"
       height="48"
       x="734.71106"
       y="342.73929"
       transform="matrix(0.5,0.8660254,-0.8660254,0.5,0,0)" />
    <rect
       style="fill:#000000"
       id="rect2989-9-90"
       width="8"
       height="48"
       x="-482.61386"
       y="662.14966"
       inkscape:transform-center-x="-7.4999971"
       transform="matrix(0.70710678,-0.70710678,0.70710678,0.70710678,0,0)" />
    <rect
       style="fill:#000000"
       id="rect2989-91-7"
       width="8"
       height="48"
       x="-636.14874"
       y="522.14032"
       transform="matrix(0.5,-0.8660254,0.8660254,0.5,0,0)"
       inkscape:transform-center-y="2.4148248"
       inkscape:transform-center-x="-0.64704014" />
    <rect
       style="fill:#000000"
       id="rect2989-91-2-70"
       width="8"
       height="48"
       x="725.94788"
       y="346.91748"
       transform="matrix(0.5,0.8660254,-0.8660254,0.5,0,0)" />
    <rect
       style="fill:#000000"
       id="rect3055-8"
       width="12"
       height="38"
       x="140.25"
       y="764.11218" />
    <path
       sodipodi:type="arc"
       style="fill:#000000"
       id="path3057-4"
       sodipodi:cx="183"
       sodipodi:cy="52"
       sodipodi:rx="27"
       sodipodi:ry="8"
       d="m 210,52 a 27,8 0 1 1 -54,0 27,8 0 1 1 54,0 z"
       transform="translate(-17.25,709.61218)" />
    <path
       sodipodi:type="arc"
       style="fill:#000000"
       id="path3061-16"
       sodipodi:cx="142.75"
       sodipodi:cy="43.75"
       sodipodi:rx="3.25"
       sodipodi:ry="5.75"
       d="m 146,43.75 a 3.25,5.75 0 1 1 -6.5,0 3.25,5.75 0 1 1 6.5,0 z"
       transform="translate(3.75,710.11218)" />
    <path
       sodipodi:type="arc"
       style="fill:#ffffff"
       id="path3063-3"
       sodipodi:cx="155.25"
       sodipodi:cy="51.25"
       sodipodi:rx="3.75"
       sodipodi:ry="1.25"
       d="m 159,51.25 a 3.75,1.25 0 1 1 -7.5,0 3.75,1.25 0 1 1 7.5,0 z"
       transform="translate(5.25,705.11218)" />
    <path
       transform="translate(221.75,673.11218)"
       sodipodi:type="arc"
       style="fill:#000000"
       id="path2987-68"
       sodipodi:cx="91"
       sodipodi:cy="101"
       sodipodi:rx="55"
       sodipodi:ry="17"
       d="m 146,101 a 55,17 0 1 1 -110,0 55,17 0 1 1 110,0 z" />
    <rect
       style="fill:#000000"
       id="rect2989-93"
       width="8"
       height="48"
       x="751.09259"
       y="355.97241"
       transform="matrix(0.70710678,0.70710678,-0.70710678,0.70710678,0,0)" />
    <rect
       style="fill:#000000"
       id="rect2989-9-3"
       width="8"
       height="48"
       x="117.72678"
       y="842.13007"
       transform="matrix(0.96592583,-0.25881905,0.25881905,0.96592583,0,0)" />
    <rect
       style="fill:#000000"
       id="rect2989-91-6"
       width="8"
       height="48"
       x="127.25663"
       y="845.20123"
       transform="matrix(0.96592583,-0.25881905,0.25881905,0.96592583,0,0)" />
    <rect
       style="fill:#000000"
       id="rect2989-91-2-73"
       width="8"
       height="48"
       x="762.0528"
       y="345.71939"
       transform="matrix(0.70710678,0.70710678,-0.70710678,0.70710678,0,0)" />
    <rect
       style="fill:#000000"
       id="rect3055-3"
       width="12"
       height="38"
       x="355.75"
       y="733.11218" />
    <path
       sodipodi:type="arc"
       style="fill:#000000"
       id="path3057-69"
       sodipodi:cx="183"
       sodipodi:cy="52"
       sodipodi:rx="27"
       sodipodi:ry="8"
       d="m 210,52 a 27,8 0 1 1 -54,0 27,8 0 1 1 54,0 z"
       transform="translate(198.25,678.61218)" />
    <path
       sodipodi:type="arc"
       style="fill:#000000"
       id="path3061-2"
       sodipodi:cx="142.75"
       sodipodi:cy="43.75"
       sodipodi:rx="3.25"
       sodipodi:ry="5.75"
       d="m 146,43.75 a 3.25,5.75 0 1 1 -6.5,0 3.25,5.75 0 1 1 6.5,0 z"
       transform="translate(219.25,679.11218)" />
    <path
       sodipodi:type="arc"
       style="fill:#ffffff"
       id="path3063-7"
       sodipodi:cx="155.25"
       sodipodi:cy="51.25"
       sodipodi:rx="3.75"
       sodipodi:ry="1.25"
       d="m 159,51.25 a 3.75,1.25 0 1 1 -7.5,0 3.75,1.25 0 1 1 7.5,0 z"
       transform="translate(220.75,674.11218)" />
    <path
       transform="translate(419.75,721.61218)"
       sodipodi:type="arc"
       style="fill:#000000"
       id="path2987-9"
       sodipodi:cx="91"
       sodipodi:cy="101"
       sodipodi:rx="55"
       sodipodi:ry="17"
       d="m 146,101 a 55,17 0 1 1 -110,0 55,17 0 1 1 110,0 z"
       inkscape:transform-center-x="20"
       inkscape:transform-center-y="32.5" />
    <rect
       style="fill:#000000"
       id="rect2989-0"
       width="8"
       height="48"
       x="233.65149"
       y="915.63831"
       transform="matrix(0.96592583,-0.25881905,0.25881905,0.96592583,0,0)" />
    <rect
       style="fill:#000000"
       id="rect2989-9-7"
       width="8"
       height="48"
       x="296.81561"
       y="938.77472"
       transform="matrix(0.96592583,-0.25881905,0.25881905,0.96592583,0,0)" />
    <rect
       style="fill:#000000"
       id="rect2989-91-5"
       width="8"
       height="48"
       x="45.041374"
       y="990.55786"
       transform="matrix(0.8660254,-0.5,0.5,0.8660254,0,0)" />
    <rect
       style="fill:#000000"
       id="rect2989-91-2-736"
       width="8"
       height="48"
       x="-12.16534"
       y="954.64276"
       transform="matrix(0.8660254,-0.5,0.5,0.8660254,0,0)" />
    <rect
       style="fill:#000000"
       id="rect3055-5"
       width="12"
       height="38"
       x="553.75"
       y="781.61218" />
    <path
       sodipodi:type="arc"
       style="fill:#000000"
       id="path3057-2"
       sodipodi:cx="183"
       sodipodi:cy="52"
       sodipodi:rx="27"
       sodipodi:ry="8"
       d="m 210,52 a 27,8 0 1 1 -54,0 27,8 0 1 1 54,0 z"
       transform="translate(396.25,727.11218)" />
    <path
       sodipodi:type="arc"
       style="fill:#000000"
       id="path3061-8"
       sodipodi:cx="142.75"
       sodipodi:cy="43.75"
       sodipodi:rx="3.25"
       sodipodi:ry="5.75"
       d="m 146,43.75 a 3.25,5.75 0 1 1 -6.5,0 3.25,5.75 0 1 1 6.5,0 z"
       transform="translate(417.25,727.61218)" />
    <path
       sodipodi:type="arc"
       style="fill:#ffffff"
       id="path3063-51"
       sodipodi:cx="155.25"
       sodipodi:cy="51.25"
       sodipodi:rx="3.75"
       sodipodi:ry="1.25"
       d="m 159,51.25 a 3.75,1.25 0 1 1 -7.5,0 3.75,1.25 0 1 1 7.5,0 z"
       transform="translate(418.75,722.61218)" />
  </g>
</svg>
